<?xml version="1.0" encoding="UTF-8" standalone="no"?>
<svg width="400" height="400" viewBox="0 0 400 400" xmlns="http://www.w3.org/2000/svg">
  <defs>
    <pattern id="dna-helix" x="0" y="0" width="100" height="100" patternUnits="userSpaceOnUse">
      <!-- DNA Helix Lines -->
      <path d="M10,0 Q50,40 90,0" fill="none" stroke="#7fe084" stroke-width="1.5" opacity="0.4"/>
      <path d="M10,25 Q50,65 90,25" fill="none" stroke="#7fe084" stroke-width="1.5" opacity="0.4"/>
      <path d="M10,50 Q50,90 90,50" fill="none" stroke="#7fe084" stroke-width="1.5" opacity="0.4"/>
      <path d="M10,75 Q50,115 90,75" fill="none" stroke="#7fe084" stroke-width="1.5" opacity="0.4"/>
      <path d="M10,100 Q50,140 90,100" fill="none" stroke="#7fe084" stroke-width="1.5" opacity="0.4"/>

      <!-- Connecting rungs -->
      <line x1="30" y1="15" x2="70" y2="15" stroke="#7fe084" stroke-width="1" opacity="0.3"/>
      <line x1="40" y1="40" x2="60" y2="40" stroke="#7fe084" stroke-width="1" opacity="0.3"/>
      <line x1="30" y1="65" x2="70" y2="65" stroke="#7fe084" stroke-width="1" opacity="0.3"/>
      <line x1="40" y1="90" x2="60" y2="90" stroke="#7fe084" stroke-width="1" opacity="0.3"/>

      <!-- DNA base pairs (circles) -->
      <circle cx="30" cy="15" r="3" fill="#7fe084" opacity="0.4"/>
      <circle cx="70" cy="15" r="3" fill="#7fe084" opacity="0.4"/>
      <circle cx="40" cy="40" r="3" fill="#7fe084" opacity="0.4"/>
      <circle cx="60" cy="40" r="3" fill="#7fe084" opacity="0.4"/>
      <circle cx="30" cy="65" r="3" fill="#7fe084" opacity="0.4"/>
      <circle cx="70" cy="65" r="3" fill="#7fe084" opacity="0.4"/>
      <circle cx="40" cy="90" r="3" fill="#7fe084" opacity="0.4"/>
      <circle cx="60" cy="90" r="3" fill="#7fe084" opacity="0.4"/>
    </pattern>
  </defs>
  <rect width="100%" height="100%" fill="url(#dna-helix)"/>
</svg>